<svg width="48" height="48" viewBox="0 0 48 48" fill="none" xmlns="http://www.w3.org/2000/svg">
<path d="M34 30.4908V44.2338C34 44.786 33.5522 45.234 33 45.234C32.8188 45.234 32.641 45.1846 32.4856 45.0914L24 40L15.5145 45.0914C15.0409 45.3754 14.4267 45.2218 14.1425 44.7484C14.0493 44.5928 14 44.415 14 44.2338V30.4908C10.3421 27.5586 8 23.0528 8 18C8 9.16344 15.1634 2 24 2C32.8366 2 40 9.16344 40 18C40 23.0528 37.6578 27.5586 34 30.4908ZM18 32.837V38.9352L24 35.3352L30 38.9352V32.837C28.1472 33.587 26.1218 34 24 34C21.8782 34 19.8529 33.587 18 32.837ZM24 30C30.6274 30 36 24.6274 36 18C36 11.3726 30.6274 6 24 6C17.3726 6 12 11.3726 12 18C12 24.6274 17.3726 30 24 30Z" fill="black"/>
</svg>
