<svg width="48" height="48" viewBox="0 0 48 48" fill="none" xmlns="http://www.w3.org/2000/svg">
<path d="M34.1678 31.624C39.3654 26.1382 39.2758 17.4769 33.8994 12.1005C28.4322 6.63316 19.5678 6.63316 14.1005 12.1005C8.7241 17.4769 8.63468 26.1382 13.8322 31.624C15.9553 28.2456 19.7154 26 24 26C28.2846 26 32.0448 28.2456 34.1678 31.624ZM16.7707 34.5696L24 41.799L31.2294 34.5696C29.945 31.8678 27.1906 30 24 30C20.8094 30 18.055 31.8678 16.7707 34.5696ZM24 47.4558L11.2721 34.728C4.24264 27.6984 4.24264 16.3015 11.2721 9.27208C18.3015 2.24264 29.6984 2.24264 36.728 9.27208C43.7574 16.3015 43.7574 27.6984 36.728 34.728L24 47.4558ZM24 20C25.1046 20 26 19.1046 26 18C26 16.8954 25.1046 16 24 16C22.8954 16 22 16.8954 22 18C22 19.1046 22.8954 20 24 20ZM24 24C20.6862 24 18 21.3138 18 18C18 14.6863 20.6862 12 24 12C27.3138 12 30 14.6863 30 18C30 21.3138 27.3138 24 24 24Z" fill="black"/>
</svg>
